<svg id="Capa_2" data-name="Capa 2" xmlns="http://www.w3.org/2000/svg" viewBox="0 0 16 16"><defs><style>.cls-1{fill:#fa4e41;}.cls-2{fill:#404041;}</style></defs><path class="cls-1" d="M13,1.93H10.36a2.41,2.41,0,0,0-4.72,0H3a.47.47,0,1,0,0,.93H5.63A5.58,5.58,0,0,0,8,6a5.58,5.58,0,0,0,2.37-3.18H13a.47.47,0,1,0,0-.93Zm-5,2A1.55,1.55,0,1,1,9.55,2.4,1.54,1.54,0,0,1,8,3.94Z"/><path class="cls-1" d="M8.76,15.24a.76.76,0,1,1-1.52,0V10.55a.76.76,0,0,1,1.52,0Z"/><path class="cls-2" d="M10.52,3.87A6.58,6.58,0,0,1,8.24,6.41L8,6.56l-.24-.15A6.59,6.59,0,0,1,5.48,3.87C4,4,4.11,5.4,4.11,7.33c0,3.67,2,5.16,2.64,5.54V10.55a1.25,1.25,0,0,1,2.5,0v2.32c.63-.38,2.64-1.87,2.64-5.54C11.89,5.4,12,4,10.52,3.87Z"/></svg>