<svg width="59" height="60" viewBox="0 0 59 60" fill="none" xmlns="http://www.w3.org/2000/svg">
<g clip-path="url(#clip0)">
<path d="M53.4 25.6L57.1 24.2C58.2 23.8 58.9 22.6 58.7 21.5L58 16.4C57.8 15.1 56.7 14.2 55.4 14.2L47.9 14.5C47.6 14.5 47.4 14.4 47.2 14.1L46.4 12.7C46 11.9 45.1 11.4 44.2 11.4H42C41.8 9.8 41.4 8.2 40.6 6.8C38.4 2.6 34.2 0 29.4 0C24.6 0 20.4 2.6 18.2 6.8C17.4 8.3 17 9.9 16.8 11.5H14.7C14 11.5 13.3 11.8 12.9 12.4C12.4 13 12.3 13.7 12.4 14.4L13.3 18.8C13.3 19 13.2 19.2 13.2 19.3C13.1 19.4 13 19.5 12.7 19.5H9.5C8.5 19.5 7.5 19.9 6.9 20.7C2.3 25.8 0 29.2 0 30.7C0 32.7 3.1 35.2 5.7 36.9C5.8 37 5.8 37 5.8 37.1V43.4C5.8 44.5 6.7 45.5 7.9 45.5H10.2C10.4 45.5 10.5 45.6 10.5 45.8V50.8C10.5 51.7 10.8 52.5 11.5 53.1L14.3 55.9C14.6 56.2 15 56.4 15.4 56.5L26.2 58.5C27.1 58.7 27.9 58.3 28.4 57.6L31.7 52.5C31.8 52.3 32 52.3 32.2 52.4L44 59.7C44.3 59.9 44.7 60 45.1 60C45.6 60 46 59.9 46.4 59.6L51.7 55.5C52.5 54.9 52.7 53.9 52.4 53L50.9 49.2C50.8 49 50.8 48.7 51 48.5L57.6 38.2C58.2 37.2 58.1 35.9 57.2 35L53.2 31C53.1 30.9 53 30.7 53 30.5V26.3C52.9 26 53.1 25.7 53.4 25.6ZM19.7 7.7C21.6 4 25.2 1.8 29.4 1.8C33.5 1.8 37.2 4 39.1 7.7C41 11.4 40.7 15.6 38.3 19L29.4 31.7L20.5 19C18.1 15.6 17.8 11.3 19.7 7.7ZM51.9 32.3L55.9 36.3C56.1 36.5 56.2 36.9 56 37.2L49.4 47.5C49 48.2 48.9 49 49.2 49.8L50.7 53.6C50.8 53.7 50.7 53.9 50.6 54L45.3 58.1C45.2 58.2 45 58.2 44.9 58.1L33 51C32 50.4 30.7 50.7 30.1 51.7L26.8 56.8C26.7 56.9 26.6 57 26.4 57L15.6 55C15.5 55 15.5 55 15.4 54.9L12.6 52.1C12.3 51.8 12.2 51.4 12.2 51V46C12.2 44.9 11.3 43.9 10.1 43.9H7.9C7.7 43.9 7.6 43.8 7.6 43.6V37.3C7.6 36.6 7.3 36 6.7 35.6C3.3 33.4 1.8 31.6 1.8 30.8C1.8 30.2 3.1 27.7 8.2 22C8.5 21.6 9 21.4 9.5 21.4H12.7C13.4 21.4 14.1 21.1 14.5 20.5C15 19.9 15.1 19.2 15 18.5L14.1 14C14.1 13.8 14.2 13.6 14.2 13.5C14.3 13.4 14.4 13.3 14.7 13.3H16.7C16.8 15.6 17.6 18 19 20L29.4 34.7L39.7 20C41.1 18 41.9 15.6 42 13.3H44.2C44.5 13.3 44.7 13.4 44.8 13.7L45.6 15.1C46.1 15.9 46.9 16.4 47.9 16.4L55.4 16.1C55.8 16.1 56.1 16.4 56.2 16.7L57 21.8C57.1 22.1 56.9 22.5 56.5 22.6L52.8 24C51.8 24.4 51.1 25.3 51.1 26.4V30.6C51.2 31.2 51.4 31.8 51.9 32.3Z" fill="white"/>
<path d="M29.4 17.8999C32.5 17.8999 34.9 15.3999 34.9 12.3999C34.9 9.3999 32.4 6.8999 29.4 6.8999C26.4 6.8999 23.9 9.3999 23.9 12.3999C23.9 15.3999 26.3 17.8999 29.4 17.8999ZM29.4 8.5999C31.5 8.5999 33.1 10.2999 33.1 12.2999C33.1 14.3999 31.4 15.9999 29.4 15.9999C27.4 15.9999 25.7 14.2999 25.7 12.2999C25.6 10.2999 27.3 8.5999 29.4 8.5999Z" fill="white"/>
<path d="M19.9 32.2998C18.2 32.2998 16.8 33.6998 16.8 35.3998C16.8 37.0998 18.2 38.4998 19.9 38.4998C21.6 38.4998 23 37.0998 23 35.3998C23 33.6998 21.6 32.2998 19.9 32.2998Z" fill="white"/>
</g>
<defs>
<clipPath id="clip0">
<rect width="58.8" height="60" fill="white"/>
</clipPath>
</defs>
</svg>
