<svg width="40" height="40" viewBox="0 0 40 40" fill="none" xmlns="http://www.w3.org/2000/svg">
<path d="M20 40C9 40 0 31 0 20C0 9 9 0 20 0C31 0 40 9 40 20C40 31 31 40 20 40ZM20 1.9C10 1.9 1.9 10 1.9 20C1.9 30 10 38.1 20 38.1C30 38.1 38.1 30 38.1 20C38.1 10 30 1.9 20 1.9Z" fill="#404041"/>
<path d="M13.3 32.0999C13 32.0999 12.7 32 12.4 31.7999C11.9 31.5 11.7 30.9 11.8 30.2999L13 23.6L8.00001 18.8C7.60001 18.4 7.40001 17.8 7.60001 17.2C7.80001 16.6 8.30001 16.2 8.80001 16.2L15.5 15.2L18.5 9.09995C18.8 8.59995 19.3 8.19995 19.9 8.19995C20.5 8.19995 21 8.49995 21.3 9.09995L24.3 15.2L31 16.2C31.6 16.3 32.1 16.7 32.2 17.2C32.4 17.8 32.2 18.4 31.8 18.8L26.9 23.6L28.1 30.2999C28.2 30.9 28 31.5 27.5 31.7999C27 32.0999 26.4 32.2 25.9 31.9L19.9 28.7L13.9 31.9C13.7 32 13.5 32.0999 13.3 32.0999ZM20 26.7C20.2 26.7 20.3 26.6999 20.4 26.7999L26.2 29.9L25.1 23.4C25 23.1 25.1 22.8 25.4 22.6L30.1 18L23.6 17C23.3 17 23 16.8 22.9 16.5L20 10.6L17.1 16.5C17 16.8 16.7 17 16.4 17L9.90001 18L14.6 22.6C14.8 22.8 14.9 23.1 14.9 23.4L13.8 29.9L19.6 26.7999C19.7 26.6999 19.8 26.7 20 26.7Z" fill="#404041"/>
</svg>
