<svg width="58" height="61" viewBox="0 0 58 61" fill="none" xmlns="http://www.w3.org/2000/svg">
<g clip-path="url(#clip0)">
<path d="M47.3999 21C47.5999 21.3 47.8999 21.5 48.2999 21.5C48.6999 21.5 48.9999 21.3 49.1999 21L54.9999 12.8C56.7999 10.3 56.9999 7.1 55.4999 4.4C54.0999 1.6 51.3999 0 48.2999 0C45.1999 0 42.4999 1.6 41.0999 4.4C39.6999 7.1 39.8999 10.3 41.5999 12.8L47.3999 21ZM42.9999 5.4C43.9999 3.4 45.9999 2.2 48.2999 2.2C50.5999 2.2 52.4999 3.4 53.5999 5.4C54.5999 7.4 54.4999 9.7 53.1999 11.6L48.2999 18.6L43.3999 11.6C42.0999 9.7 41.9999 7.4 42.9999 5.4Z" fill="#FA4E41"/>
<path d="M26.3 30.6001C23.9 25.9001 19.2 23.1001 14 23.1001C8.79996 23.1001 4.09996 25.9001 1.69996 30.6001C-0.800042 35.3001 -0.500042 40.7001 2.49996 45.0001L13 60.0001C13.2 60.3001 13.5 60.5001 13.9 60.5001C14.3 60.5001 14.6 60.3001 14.8 60.0001L25.3 45.0001C28.4 40.7001 28.7 35.3001 26.3 30.6001ZM23.6 43.8001L14 57.6001L4.29996 43.8001C1.69996 40.1001 1.39996 35.6001 3.49996 31.6001C5.59996 27.6001 9.49996 25.3001 13.9 25.3001C18.3 25.3001 22.3 27.7001 24.3 31.6001C26.4 35.6001 26.1 40.1001 23.6 43.8001Z" fill="#FA4E41"/>
<path d="M13.9 30.3C10.5 30.3 7.69995 33.1 7.69995 36.5C7.69995 39.9 10.5 42.7001 13.9 42.7001C17.3 42.7001 20.1 39.9 20.1 36.5C20.1 33.1 17.4 30.3 13.9 30.3ZM18 36.5C18 38.7 16.2 40.6 13.9 40.6C11.6 40.6 9.79995 38.8 9.79995 36.5C9.79995 34.2 11.6 32.4001 13.9 32.4001C16.2 32.4001 18 34.3 18 36.5Z" fill="#FA4E41"/>
<path d="M44.7 27.1999L46.5 24.8999C46.9 24.3999 46.8 23.6999 46.3 23.3999C45.8 22.9999 45.1 23.0999 44.8 23.5999L43 25.8999C42.6 26.3999 42.7 27.0999 43.2 27.3999C43.4 27.4999 43.6 27.5999 43.9 27.5999C44.2 27.5999 44.5 27.4999 44.7 27.1999Z" fill="#FA4E41"/>
<path d="M38.5 34.2001C38.6 34.3001 38.8 34.3001 39 34.3001C39.4 34.3001 39.8 34.1001 40 33.7001C40.2 33.3001 40.4 32.9001 40.7 32.5001L41.5 31.4001C41.7 31.2001 41.8 30.9001 41.7 30.6001C41.7 30.3001 41.5 30.1001 41.3 29.9001C41.1 29.7001 40.8 29.6001 40.5 29.7001C40.2 29.7001 40 29.9001 39.8 30.1001L39 31.2001C38.6 31.7001 38.3 32.2001 38 32.8001C37.7 33.3001 37.9 33.9001 38.5 34.2001Z" fill="#FA4E41"/>
<path d="M38.8999 40.1001C39.0999 40.1001 39.1999 40.1001 39.3999 40.0001C39.6999 39.9001 39.8999 39.7001 39.9999 39.4001C40.0999 39.1001 40.0999 38.8001 39.9999 38.6001C39.6999 37.8001 39.4999 37.0001 39.4999 36.2001C39.4999 35.6001 38.9999 35.1001 38.3999 35.1001C38.0999 35.1001 37.7999 35.2001 37.5999 35.4001C37.3999 35.6001 37.2999 35.9001 37.2999 36.2001C37.2999 37.3001 37.5999 38.5001 37.9999 39.5001C38.0999 39.8001 38.4999 40.1001 38.8999 40.1001Z" fill="#FA4E41"/>
<path d="M49.6999 49.1999C49.4999 48.9999 49.1999 48.8999 48.8999 48.8999C48.5999 48.8999 48.2999 48.9999 48.0999 49.1999C47.8999 49.3999 47.7999 49.6999 47.7999 49.9999C47.7999 50.2999 47.8999 50.5999 48.0999 50.7999L50.1999 52.9999C50.3999 53.1999 50.6999 53.2999 50.9999 53.2999C51.2999 53.2999 51.4999 53.1999 51.6999 52.9999C51.8999 52.7999 51.9999 52.4999 51.9999 52.1999C51.9999 51.8999 51.8999 51.5999 51.6999 51.3999L49.6999 49.1999Z" fill="#FA4E41"/>
<path d="M43.8 43.5C43.8 43.2 43.7 42.9 43.5 42.7L41.4 40.5C41 40.1 40.3 40.1 39.9 40.5C39.7 40.7 39.6 41 39.6 41.3C39.6 41.6 39.7 41.8999 39.9 42.0999L42 44.3C42.2 44.5 42.5 44.5999 42.8 44.5999C43.1 44.5999 43.3 44.5 43.5 44.3C43.7 44.1 43.8 43.8 43.8 43.5Z" fill="#FA4E41"/>
<path d="M44 46.4L46.1 48.6C46.3 48.8 46.6 48.9 46.9 48.9C47.2 48.9 47.4 48.8 47.6 48.6C47.8 48.4 47.9 48.1 47.9 47.8C47.9 47.5 47.8 47.2 47.6 47L45.5 44.8C45.3 44.6 45 44.5 44.7 44.5C44.4 44.5 44.1 44.6 43.9 44.8C43.7 45 43.6 45.3 43.6 45.6C43.7 45.9 43.8 46.2 44 46.4Z" fill="#FA4E41"/>
<path d="M57.1999 57.0001L55.1999 54.9001C54.9999 54.7001 54.6999 54.6001 54.3999 54.6001C54.0999 54.6001 53.7999 54.7001 53.5999 54.9001C53.3999 55.1001 53.2999 55.4001 53.2999 55.7001C53.2999 56.0001 53.3999 56.3001 53.5999 56.5001L53.8999 56.8001H53.4999C52.8999 56.8001 52.3999 57.3001 52.3999 57.9001C52.3999 58.5001 52.8999 59.0001 53.4999 59.0001H56.4999C56.8999 59.0001 57.2999 58.7001 57.4999 58.3001C57.5999 57.8001 57.4999 57.4001 57.1999 57.0001Z" fill="#FA4E41"/>
<path d="M34 56.7H30.6C30 56.7 29.5 57.1999 29.5 57.7999C29.5 58.3999 30 58.9 30.6 58.9H34C34.6 58.9 35.1 58.3999 35.1 57.7999C35.1 57.1999 34.6 56.7 34 56.7Z" fill="#FA4E41"/>
<path d="M47.5 56.7H44.1C43.5 56.7 43 57.1999 43 57.7999C43 58.3999 43.5 58.9 44.1 58.9H47.5C48.1 58.9 48.6 58.3999 48.6 57.7999C48.6 57.1999 48.1 56.7 47.5 56.7Z" fill="#FA4E41"/>
<path d="M40.7 56.7H37.2999C36.6999 56.7 36.2 57.1999 36.2 57.7999C36.2 58.3999 36.6999 58.9 37.2999 58.9H40.7C41.3 58.9 41.7999 58.3999 41.7999 57.7999C41.7999 57.1999 41.3 56.7 40.7 56.7Z" fill="#FA4E41"/>
<path d="M27.1999 56.7H26.4999C25.8999 56.7 25.3999 57.1999 25.3999 57.7999C25.3999 58.3999 25.8999 58.9 26.4999 58.9H27.1999C27.7999 58.9 28.2999 58.3999 28.2999 57.7999C28.2999 57.1999 27.7999 56.7 27.1999 56.7Z" fill="#FA4E41"/>
<path d="M23.4999 56.7H20.4999C19.8999 56.7 19.3999 57.1999 19.3999 57.7999C19.3999 58.3999 19.8999 58.9 20.4999 58.9H23.4999C24.0999 58.9 24.5999 58.3999 24.5999 57.7999C24.5999 57.1999 24.0999 56.7 23.4999 56.7Z" fill="#FA4E41"/>
</g>
<defs>
<clipPath id="clip0">
<rect width="57.5" height="60.5" fill="white"/>
</clipPath>
</defs>
</svg>
