<svg width="60" height="60" viewBox="0 0 60 60" fill="none" xmlns="http://www.w3.org/2000/svg">
<path d="M48.9 35.8V25C48.9 23 47.3 21.4 45.3 21.4H39.8V14.4C39.8 6.4 33.4 0 25.4 0C17.5 0 11.1 6.4 11.1 14.3V21.3H5.6C3.6 21.4 2 23 2 25V54.5C2 56.5 3.6 58.1 5.6 58.1H37.9C39.8 59.3 42.1 60 44.5 60C51.4 60 57 54.4 57 47.5C57 42.2 53.6 37.6 48.9 35.8ZM12.8 14.3C12.8 7.3 18.5 1.6 25.5 1.6C32.5 1.6 38.2 7.3 38.2 14.3V21.3H12.8V14.3ZM5.6 56.4C4.5 56.4 3.7 55.5 3.7 54.5V25C3.7 23.9 4.6 23.1 5.6 23.1H45.3C46.4 23.1 47.2 24 47.2 25V35.4C46.3 35.2 45.4 35.1 44.5 35.1C37.6 35.1 32 40.7 32 47.6C32 51.1 33.4 54.2 35.7 56.5H5.6V56.4ZM44.5 58.3C38.5 58.3 33.7 53.4 33.7 47.5C33.7 41.5 38.6 36.7 44.5 36.7C50.4 36.7 55.3 41.6 55.3 47.5C55.4 53.5 50.5 58.3 44.5 58.3Z" fill="white"/>
<path d="M25.5 33.2002C23.4 33.2002 21.8 34.9002 21.8 36.9002C21.8 38.3002 22.6001 39.5002 23.7001 40.1002V43.2002C23.7001 44.2002 24.5001 45.1002 25.6 45.1002C26.6 45.1002 27.5 44.3002 27.5 43.2002V40.1002C28.6 39.5002 29.4 38.3002 29.4 36.9002C29.3 34.9002 27.6 33.2002 25.5 33.2002Z" fill="white"/>
<path d="M50 43L42.7 51L39.1 47.4C38.8 47.1 38.2 47.1 37.9 47.4C37.6 47.7 37.6 48.3 37.9 48.6L42.1 52.8C42.3 53 42.5 53 42.7 53C42.9 53 43.1 52.9 43.3 52.7L51.2 44C51.5 43.7 51.5 43.1 51.1 42.8C50.8 42.7 50.3 42.7 50 43Z" fill="white"/>
</svg>
