<svg width="64" height="55" viewBox="0 0 64 55" fill="none" xmlns="http://www.w3.org/2000/svg">
<g clip-path="url(#clip0)">
<path d="M58.8 0H4.9C2.2 0 0 2.2 0 4.9V49.3C0 52 2.2 54.2 4.9 54.2H58.8C61.5 54.2 63.7 52 63.7 49.3V4.9C63.7 2.2 61.5 0 58.8 0ZM19.4 13.6H61.4V49.2C61.4 50.6 60.2 51.8 58.8 51.8H19.4V13.8C19.4 13.8 19.4 13.7 19.4 13.6ZM17.2 13.6C17.2 13.7 17.2 13.8 17.2 13.9V51.9H4.9C3.5 51.9 2.3 50.7 2.3 49.3V13.6H17.2ZM61.4 4.9V11.4H2.3V4.9C2.3 3.5 3.5 2.3 4.9 2.3H58.8C60.2 2.3 61.4 3.4 61.4 4.9Z" fill="#FA4E41"/>
<path d="M28.6 30.0001H53C54.5 30.0001 55.7 28.8001 55.7 27.3001V20.8001C55.7 19.3001 54.5 18.1001 53 18.1001H28.6C27.1 18.1001 25.9 19.3001 25.9 20.8001V27.3001C25.9 28.8001 27.1 30.0001 28.6 30.0001ZM28.1 27.3001V20.8001C28.1 20.6001 28.3 20.3001 28.6 20.3001H53C53.2 20.3001 53.5 20.5001 53.5 20.8001V27.3001C53.5 27.5001 53.3 27.8001 53 27.8001H28.6C28.3 27.7001 28.1 27.5001 28.1 27.3001Z" fill="#FA4E41"/>
<path d="M27.9 46.5H36.2001C37.3001 46.5 38.3 45.6 38.3 44.4V36.1C38.3 35 37.4001 34 36.2001 34H27.9C26.8 34 25.8 34.9 25.8 36.1V44.4C25.9 45.6 26.8 46.5 27.9 46.5ZM28.1 44.3V36.3H36.1V44.3H28.1Z" fill="#FA4E41"/>
<path d="M53 34.8999H42.4C41.4 34.8999 40.6 35.6999 40.6 36.6999C40.6 37.6999 41.4 38.4999 42.4 38.4999H53C54 38.4999 54.8 37.6999 54.8 36.6999C54.8 35.6999 54 34.8999 53 34.8999Z" fill="#FA4E41"/>
<path d="M53 41.5H42.4C41.4 41.5 40.6 42.3 40.6 43.3C40.6 44.3 41.4 45.1 42.4 45.1H53C54 45.1 54.8 44.3 54.8 43.3C54.8 42.3 54 41.5 53 41.5Z" fill="#FA4E41"/>
<path d="M7.89995 5.1001C6.69995 5.1001 5.69995 6.1001 5.69995 7.3001C5.69995 8.5001 6.69995 9.5001 7.89995 9.5001C9.09995 9.5001 10.1 8.5001 10.1 7.3001C10.1 6.1001 9.09995 5.1001 7.89995 5.1001Z" fill="#FA4E41"/>
<path d="M13.4 5.1001C12.2 5.1001 11.2 6.1001 11.2 7.3001C11.2 8.5001 12.2 9.5001 13.4 9.5001C14.6 9.5001 15.6 8.5001 15.6 7.3001C15.6 6.1001 14.6 5.1001 13.4 5.1001Z" fill="#FA4E41"/>
<path d="M18.9 5.1001C17.6999 5.1001 16.7 6.1001 16.7 7.3001C16.7 8.5001 17.6999 9.5001 18.9 9.5001C20.1 9.5001 21.1 8.5001 21.1 7.3001C21.1 6.1001 20.1 5.1001 18.9 5.1001Z" fill="#FA4E41"/>
</g>
<defs>
<clipPath id="clip0">
<rect width="63.7" height="54.1" fill="white"/>
</clipPath>
</defs>
</svg>
