<svg width="50" height="50" viewBox="0 0 50 50" fill="none" xmlns="http://www.w3.org/2000/svg">
<g clip-path="url(#clip0)">
<path d="M48.75 10H45.25V8.25C45.25 7.5 44.625 7 44 7H36.125H9.125H1.25C0.625 7 0 7.5 0 8.25V16.125V26.25V34.125C0 34.875 0.625 35.375 1.25 35.375H3.125V38.125C3.125 38.875 3.75 39.375 4.375 39.375H48.75C49.5 39.375 50 38.75 50 38.125V11.25C50 10.625 49.375 10 48.75 10ZM42.75 9.5V11.25V13.625H41.5C39.875 13.625 38.625 12.375 38.625 10.75V9.5H42.75ZM2.5 9.5H6.625V10.75C6.625 12.375 5.375 13.625 3.75 13.625H2.5V9.5ZM2.5 16.125H3.75C6.75 16.125 9.125 13.75 9.125 10.75V9.5H36.125V10.75C36.125 13.75 38.5 16.125 41.5 16.125H42.75V26.25H41.5C38.5 26.25 36.125 28.625 36.125 31.625V32.875H9.125V31.625C9.125 28.625 6.75 26.25 3.75 26.25H2.5V16.125ZM42.75 28.75V32.875H38.625V31.625C38.625 30 39.875 28.75 41.5 28.75H42.75ZM2.5 28.75H3.75C5.375 28.75 6.625 30 6.625 31.625V32.875H2.5V28.75ZM47.5 36.875H5.625V35.5H9.125H36.125H44C44.75 35.5 45.25 34.875 45.25 34.25V26.375V16.125V12.5H47.5V36.875Z" fill="#404041"/>
<path d="M22.625 29.875C27.5 29.875 31.375 26 31.375 21.125C31.375 16.375 27.5 12.375 22.625 12.375C17.875 12.375 13.875 16.25 13.875 21.125C13.875 26 17.875 29.875 22.625 29.875ZM22.625 15C26 15 28.75 17.75 28.75 21.125C28.75 24.5 26 27.25 22.625 27.25C19.25 27.25 16.5 24.5 16.5 21.125C16.5 17.75 19.25 15 22.625 15Z" fill="#404041"/>
<path d="M36.875 24.75C38.5 24.75 39.75 23.5 39.75 21.875C39.75 20.25 38.5 19 36.875 19C35.25 19 34 20.25 34 21.875C34 23.5 35.25 24.75 36.875 24.75Z" fill="#404041"/>
<path d="M8 24.75C9.625 24.75 10.875 23.5 10.875 21.875C10.875 20.25 9.625 19 8 19C6.375 19 5.125 20.25 5.125 21.875C5.125 23.5 6.375 24.75 8 24.75Z" fill="#404041"/>
</g>
<defs>
<clipPath id="clip0">
<rect width="50" height="32.375" fill="white" transform="translate(0 7)"/>
</clipPath>
</defs>
</svg>
