<svg width="50" height="50" viewBox="0 0 50 50" fill="none" xmlns="http://www.w3.org/2000/svg">
<rect width="50" height="50" fill="white"/>
<g clip-path="url(#clip0)">
<path d="M46.5 34.1001L46.8 33.8001C47 33.6001 47.1 33.3001 47.1 33.0001C47.1 32.7001 46.9 32.4001 46.7 32.2001C46.5 32.1001 42.6 28.8001 36.9 31.7001C35.3 32.5001 34.1 33.6001 33.3 34.9001V12.0001C35.5 13.0001 37.1 15.2001 37.3 17.7001L38 27.6001C38 28.2001 38.5 28.6001 39.1 28.6001H39.2C39.8 28.6001 40.3 28.0001 40.2 27.4001L39.5 17.5001C39.1 12.8001 35.2 9.1001 30.4 9.1001H26.4C25.8 9.1001 25.3 9.6001 25.3 10.2001C25.3 10.8001 25.8 11.3001 26.4 11.3001H30.4C30.6 11.3001 30.9 11.3001 31.1 11.3001V39.4001H23.5V23.6001V21.7001C23.5 18.9001 21.2 16.6001 18.4 16.6001H13.4C10.6 16.6001 8.29999 18.9001 8.29999 21.7001V23.0001C7.19999 23.7001 4.99999 25.5001 2.99999 29.5001C0.499994 34.4001 -6.10203e-06 40.3001 -0.100006 40.5001C-0.100006 40.8001 -6.09457e-06 41.1001 0.199994 41.3001C0.399994 41.5001 0.699994 41.7001 0.999994 41.7001H2.79999C3.29999 45.6001 6.69999 48.6001 10.7 48.6001C14.7 48.6001 18 45.6001 18.6 41.7001H34.1C34.6 45.6001 38 48.6001 42 48.6001C46.4 48.6001 50 45.0001 50 40.6001C50 38.0001 48.7 35.5001 46.5 34.1001ZM13.5 18.8001H18.5C20.1 18.8001 21.4 20.1001 21.4 21.7001V22.5001H10.6V21.7001C10.6 20.1001 11.9 18.8001 13.5 18.8001ZM10.8 46.4001C7.99999 46.4001 5.69999 44.4001 5.19999 41.8001H16.5C15.9 44.4001 13.5 46.4001 10.8 46.4001ZM21.4 39.5001H2.39999C2.69999 37.6001 3.39999 33.7001 5.09999 30.5001C7.09999 26.6001 9.19999 25.1001 9.79999 24.7001H21.5V39.5001H21.4ZM38 33.6001C40.8 32.2001 43.1 32.7001 44.3 33.2001L44 33.5001L38.3 39.5001H33.7C34.1 37.9001 35.3 35.0001 38 33.6001ZM42 46.4001C39.2 46.4001 36.9 44.4001 36.4 41.8001H38.2C38.8 41.8001 39.4 41.6001 39.8 41.1001L45 35.7001C46.7 36.7001 47.8 38.6001 47.8 40.6001C47.8 43.8001 45.2 46.4001 42 46.4001Z" fill="#404041"/>
<path d="M39.1 9.8C39.6 9.8 40 9.7 40.4 9.6V2.2C39.9 2.1 39.5 2 39.1 2C37 2 35.2 3.7 35.2 5.9C35.2 8.1 36.9 9.8 39.1 9.8Z" fill="#404041"/>
</g>
<defs>
<clipPath id="clip0">
<rect width="50" height="46.6" fill="white" transform="translate(0 2)"/>
</clipPath>
</defs>
</svg>
