<svg width="50" height="50" viewBox="0 0 50 50" fill="none" xmlns="http://www.w3.org/2000/svg">
<path d="M12.9584 24.5C9.83337 24.5 7.33337 27 7.33337 30.125C7.33337 33.25 9.83337 35.75 12.9584 35.75C16.0834 35.75 18.5834 33.25 18.5834 30.125C18.5834 27 15.9584 24.5 12.9584 24.5ZM12.9584 33.25C11.2084 33.25 9.83337 31.875 9.83337 30.125C9.83337 28.375 11.2084 27 12.9584 27C14.7084 27 16.0834 28.375 16.0834 30.125C16.0834 31.875 14.7084 33.25 12.9584 33.25Z" fill="#404041"/>
<path d="M23.0833 25.125C21.0833 21.25 17.2083 19 12.8333 19C8.45833 19 4.58333 21.25 2.58333 25.125C0.583333 29 0.833333 33.5 3.33333 37.125L11.8333 49.5C11.8333 49.5 11.8333 49.5 11.9583 49.5C12.0833 49.625 12.0833 49.625 12.2083 49.75H12.3333H12.4583C12.4583 50 12.5833 50 12.8333 50C12.9583 50 13.2083 50 13.3333 49.875H13.4583H13.5833C13.7083 49.75 13.7083 49.75 13.8333 49.625C13.8333 49.625 13.8333 49.625 13.9583 49.625L22.4583 37.25C24.8333 33.5 25.0833 29 23.0833 25.125ZM20.3333 35.625L12.8333 46.625L5.33333 35.625C3.33333 32.75 3.20833 29.25 4.83333 26.25C6.45833 23.25 9.45833 21.375 12.9583 21.375C16.4583 21.375 19.4583 23.25 21.0833 26.25C22.4583 29.25 22.3333 32.875 20.3333 35.625Z" fill="#404041"/>
<path d="M39.7084 17.75C39.7084 17.75 39.8334 17.75 39.7084 17.75C39.8334 17.875 39.9584 18 40.0834 18.125H40.2084H40.3334C40.4584 18.25 40.7084 18.25 40.8334 18.25C40.9584 18.25 41.2084 18.25 41.3334 18.125H41.4584H41.5834C41.7084 18 41.7084 18 41.8334 17.875C41.8334 17.875 41.8334 17.875 41.9584 17.875L46.7084 11C47.9584 8.75 48.0834 6 46.8334 3.75C45.5834 1.375 43.3334 0 40.7084 0C38.0834 0 35.8334 1.375 34.5834 3.75C33.3334 6.125 33.4584 8.75 34.9584 10.875L39.7084 17.75ZM36.7084 4.875C37.5834 3.375 39.0834 2.5 40.7084 2.5C42.4584 2.5 43.9584 3.375 44.7084 4.875C45.4584 6.375 45.4584 8.125 44.4584 9.5L40.7084 14.875L36.9584 9.5C36.0834 8.125 35.9584 6.375 36.7084 4.875Z" fill="#404041"/>
<path d="M37.7083 19.3748L36.2083 21.2498C35.8333 21.7498 35.8333 22.4998 36.4583 22.9998C36.7083 23.1248 36.9583 23.2498 37.2083 23.2498C37.5833 23.2498 37.9583 23.1248 38.2083 22.7498L39.7083 20.8748C40.0833 20.3748 40.0833 19.6248 39.4583 19.1248C38.9583 18.7498 38.2083 18.8748 37.7083 19.3748Z" fill="#404041"/>
<path d="M43.3334 41.75L40.3334 38.625C39.8334 38.125 39.0834 38.125 38.5834 38.625C38.0834 39.125 38.0834 39.875 38.5834 40.375L41.5834 43.5C41.8334 43.75 42.0834 43.875 42.4584 43.875C42.7084 43.875 43.0834 43.75 43.3334 43.5C43.8334 43 43.8334 42.125 43.3334 41.75Z" fill="#404041"/>
<path d="M36.5834 37.5003C36.8334 37.5003 37.2084 37.3753 37.4584 37.1253C37.9584 36.6253 37.9584 35.8753 37.4584 35.3753L34.8334 32.6253C34.7084 32.5003 34.5834 32.3753 34.5834 32.2503C34.2084 31.7503 33.4584 31.6253 32.8334 32.0003C32.3334 32.3753 32.2084 33.1253 32.5834 33.7503C32.7084 33.8753 32.8334 34.1253 33.0834 34.2503L35.7084 37.0003C35.9584 37.3753 36.2084 37.5003 36.5834 37.5003Z" fill="#404041"/>
<path d="M33.7084 29.3751C33.8334 28.6251 34.0834 27.8751 34.5834 27.3751L35.4584 26.2501C35.8334 25.7501 35.8334 25.0001 35.2084 24.5001C34.7084 24.1251 33.9584 24.1251 33.4584 24.7501L32.5834 25.8751C31.8334 26.7501 31.3334 27.8751 31.2084 29.1251C31.0834 29.7501 31.5834 30.3751 32.2084 30.5001H32.3334C33.0834 30.3751 33.7084 30.0001 33.7084 29.3751Z" fill="#404041"/>
<path d="M48.0834 46.625L46.4584 44.875C45.9584 44.375 45.2084 44.375 44.7084 44.875C44.3334 45.25 44.2084 45.875 44.4584 46.375C43.9584 46.5 43.5834 47 43.5834 47.5C43.5834 48.125 44.0834 48.75 44.8334 48.75H47.3334C47.8334 48.75 48.2084 48.5 48.4584 48C48.4584 47.5 48.3334 46.875 48.0834 46.625Z" fill="#404041"/>
<path d="M30.2084 46.25H25.3334C24.7084 46.25 24.0834 46.75 24.0834 47.5C24.0834 48.25 24.5834 48.75 25.3334 48.75H30.2084C30.8334 48.75 31.4584 48.25 31.4584 47.5C31.4584 46.75 30.8334 46.25 30.2084 46.25Z" fill="#404041"/>
<path d="M39.8333 46.25H34.9583C34.3333 46.25 33.7083 46.75 33.7083 47.5C33.7083 48.25 34.2083 48.75 34.9583 48.75H39.8333C40.4583 48.75 41.0833 48.25 41.0833 47.5C41.0833 46.75 40.5833 46.25 39.8333 46.25Z" fill="#404041"/>
<path d="M20.4584 46.25H17.9584C17.3334 46.25 16.7084 46.75 16.7084 47.5C16.7084 48.25 17.2084 48.75 17.9584 48.75H20.4584C21.0834 48.75 21.7084 48.25 21.7084 47.5C21.7084 46.75 21.0834 46.25 20.4584 46.25Z" fill="#404041"/>
</svg>
