<svg width="60" height="60" viewBox="0 0 60 60" fill="none" xmlns="http://www.w3.org/2000/svg">
<path d="M53.8 25.8835L57.5 24.4951C58.7 23.9992 59.5 22.8091 59.3 21.5199L58.5 16.462C58.3 15.0736 57 14.0818 55.6 14.0818L48.1 14.3794C47.9 14.3794 47.7 14.2802 47.6 14.0818L46.8 12.6934C46.3 11.8009 45.4 11.305 44.4 11.305H42.4C42.2 9.71821 41.7 8.2306 41 6.84217C38.7 2.47854 34.4 -0.0999756 29.5 -0.0999756C24.6 -0.0999756 20.3 2.47854 18 6.84217C17.3 8.2306 16.8 9.71821 16.6 11.305H14.8C14 11.305 13.3 11.7017 12.8 12.2967C12.3 12.8918 12.1 13.6852 12.3 14.4785L13.2 18.8422C13.2 18.9413 13.2 19.0405 13.1 19.1397C13.1 19.2389 13 19.2389 12.8 19.2389H9.7C8.6 19.2389 7.6 19.7347 6.9 20.5281C2.3 25.7843 0 29.1562 0 30.743C0 32.429 1.9 34.6108 5.8 37.1893V43.4372C5.8 44.7265 6.8 45.7182 8.1 45.7182H10.4V50.6769C10.4 51.6686 10.8 52.462 11.4 53.1562L14.2 55.9331C14.5 56.2306 15 56.5281 15.4 56.6273L26.2 58.6108C27.1 58.8091 28.1 58.4124 28.6 57.619L31.9 52.5612C31.9 52.5612 32 52.462 32 52.5612L43.9 59.7017C44.3 59.9 44.7 59.9992 45.1 59.9992C45.6 59.9992 46.1 59.8008 46.6 59.5033L51.9 55.4372C52.7 54.8422 53.1 53.6521 52.7 52.6604L51.2 48.8918C51.1 48.7926 51.2 48.5942 51.2 48.4951L58 38.181C58.7 37.0901 58.5 35.6025 57.6 34.7099L53.6 30.743C53.5 30.6438 53.5 30.5447 53.5 30.4455V26.2802C53.4 26.0818 53.6 25.8835 53.8 25.8835ZM38.3 18.8422L29.6 31.1397L20.9 18.8422C18.6 15.5694 18.3 11.5033 20.2 7.93308C22.1 4.36283 25.6 2.28019 29.6 2.28019C33.6 2.28019 37.2 4.36283 39 7.93308C40.9 11.5033 40.6 15.5694 38.3 18.8422ZM10.4 43.338H8.1V37.0901C8.1 36.2967 7.7 35.6025 7.1 35.2058C3.6 32.9248 2.3 31.2389 2.3 30.743C2.3 30.743 2.4 29.1562 8.6 22.1149C8.9 21.8174 9.3 21.619 9.7 21.619H12.9C13.7 21.619 14.4 21.2223 14.9 20.6273C15.4 20.0323 15.6 19.2389 15.4 18.4455L14.5 14.0818C14.5 13.9827 14.5 13.8835 14.6 13.7843C14.6 13.6851 14.7 13.6851 14.9 13.6851H16.7C16.9 15.9661 17.7 18.2471 19.1 20.2306L29.7 35.1066L40.3 20.2306C41.7 18.2471 42.5 16.0653 42.7 13.6851H44.7C44.9 13.6851 45 13.7843 45.1 13.9827L45.9 15.3711C46.4 16.2637 47.4 16.8587 48.5 16.7595L56 16.462C56.2 16.462 56.5 16.6604 56.5 16.8587L57 21.8174C57 22.0157 56.9 22.3132 56.7 22.3132L53 23.7017C51.9 24.0984 51.2 25.0901 51.2 26.2802V30.4455C51.2 31.1397 51.5 31.9331 52 32.429L56 36.3959C56.2 36.5942 56.2 36.7926 56.1 36.9909L49.5 47.2058C49 47.9992 48.9 48.8918 49.3 49.6851L50.8 53.4537V53.5529L45.5 57.619H45.4L33.4 50.5777C33 50.3794 32.6 50.2802 32.2 50.2802C31.4 50.2802 30.7 50.6769 30.2 51.3711L26.9 56.429C26.9 56.429 26.8 56.5281 26.8 56.429L16 54.4455L13.1 51.5694C12.9 51.3711 12.7 50.9744 12.7 50.6769V45.7182C12.7 44.4289 11.7 43.338 10.4 43.338Z" fill="#FA4E41"/>
</svg>
