<svg width="40" height="32" viewBox="0 0 40 32" fill="none" xmlns="http://www.w3.org/2000/svg">
<path d="M37.4 3.6H28.8C28.8 1.6 27.2 0 25.2 0H15C13 0 11.4 1.6 11.4 3.6H2.8C1.3 3.6 0 4.8 0 6.4V29.2C0 30.7 1.2 32 2.8 32H37.4C38.9 32 40.2 30.8 40.2 29.2V6.3C40.1 4.8 38.9 3.6 37.4 3.6ZM13.4 3.6C13.4 2.7 14.1 2 15 2H25.2C26.1 2 26.8 2.7 26.8 3.6H13.4ZM38.2 29.2C38.2 29.7 37.8 30.1 37.3 30.1H2.9C2.4 30.1 2 29.7 2 29.2V6.3C2 5.8 2.4 5.4 2.9 5.4H11.5H28.8H37.4C37.9 5.4 38.3 5.8 38.3 6.3V29.2H38.2Z" fill="white"/>
<path d="M20.1 9.19995C15.3 9.19995 11.5 13.1 11.5 17.8C11.5 22.5 15.4 26.4 20.1 26.4C24.8 26.4 28.7 22.5 28.7 17.8C28.7 13.1 24.9 9.19995 20.1 9.19995ZM20.1 24.5C16.4 24.5 13.4 21.5 13.4 17.8C13.4 14.1 16.4 11.1 20.1 11.1C23.8 11.1 26.8 14.1 26.8 17.8C26.8 21.5 23.8 24.5 20.1 24.5Z" fill="white"/>
<path d="M7.3 8.80005C6.5 8.80005 5.9 9.40005 5.9 10.2C5.9 11 6.5 11.6 7.3 11.6C8.1 11.6 8.7 11 8.7 10.2C8.8 9.40005 8.1 8.80005 7.3 8.80005Z" fill="white"/>
</svg>
