<svg width="60" height="55" viewBox="0 0 60 55" fill="none" xmlns="http://www.w3.org/2000/svg">
<path d="M55.9 37.88L56.3 37.4865C56.6 37.1913 56.7 36.8961 56.7 36.5026C56.7 36.109 56.5 35.8138 56.2 35.6171C56 35.4203 51.3 31.5831 44.5 35.0267C42.6 36.0106 41.2 37.2897 40.2 38.7655V11.9051C42.8 13.0858 44.7 15.6439 45 18.694L45.9 30.4024C46 31.0911 46.5 31.5831 47.2 31.5831H47.3C48 31.4847 48.6 30.8943 48.5 30.2056L47.6 18.4972C47.1 12.7906 42.3 8.46143 36.6 8.46143H31.8C31.1 8.46143 30.5 9.05176 30.5 9.74049C30.5 10.4292 31.1 11.0196 31.8 11.0196H36.6C36.9 11.0196 37.2 11.0196 37.4 11.0196V44.2754H28.3V25.5813V23.3183C28.3 19.9731 25.5 17.3165 22.2 17.3165H16.2C12.8 17.3165 10.1 20.0714 10.1 23.3183V24.7942C8.8 25.5813 6.2 27.7459 3.7 32.567C0.7 38.1752 0 45.1609 0 45.4561C0 45.8496 0.1 46.1448 0.3 46.44C0.6 46.7351 0.9 46.8335 1.3 46.8335H3.4C4 51.3595 8 54.9015 12.8 54.9015C17.6 54.9015 21.6 51.3595 22.2 46.8335H41C41.6 51.3595 45.6 54.9015 50.4 54.9015C55.7 54.9015 60 50.6707 60 45.4561C60 42.406 58.4 39.5527 55.9 37.88ZM16.2 19.7763H22.2C24.1 19.7763 25.7 21.3505 25.7 23.2199V24.2038H12.7V23.2199C12.7 21.3505 14.3 19.7763 16.2 19.7763ZM12.9 52.3434C9.6 52.3434 6.8 49.982 6.1 46.8335H19.6C19 49.982 16.3 52.3434 12.9 52.3434ZM25.7 44.2754H2.8C3.2 42.0124 4 37.4865 6 33.6493C8.4 29.0249 10.9 27.2539 11.6 26.8603H25.7V44.2754ZM45.6 37.2897C49 35.6171 51.7 36.2074 53.1 36.8961L52.7 37.2897L45.9 44.2754H40.4C40.9 42.3076 42.3 38.9623 45.6 37.2897ZM50.4 52.3434C47.1 52.3434 44.3 49.982 43.6 46.8335H45.8C46.5 46.8335 47.2 46.5383 47.7 46.0464L53.9 39.7494C56 40.9301 57.3 43.0947 57.3 45.5544C57.3 49.3917 54.3 52.3434 50.4 52.3434Z" fill="#FA4E41"/>
<path d="M46.9 9.15027C47.4 9.15027 48 9.05188 48.4 8.8551V0.29517C47.9 0.09839 47.4 0 46.9 0C44.3 0 42.2 2.06619 42.2 4.62433C42.2 7.18247 44.3 9.15027 46.9 9.15027Z" fill="#FA4E41"/>
</svg>
