<svg width="60" height="60" viewBox="0 0 60 60" fill="none" xmlns="http://www.w3.org/2000/svg">
<g clip-path="url(#clip0)">
<path d="M55.6 5H4.4C2 5 0 7 0 9.4V51.5C0 53.9 2 55.9 4.4 55.9H55.6C58 55.9 60 53.9 60 51.5V9.4C60 7 58 5 55.6 5ZM4.4 6.7H55.6C57.1 6.7 58.3 7.9 58.3 9.4V15.8H1.7V9.4C1.7 7.9 2.9 6.7 4.4 6.7ZM1.7 51.5V17.4H16.4C16.4 17.6 16.3 17.7 16.3 17.9V54.2H4.4C2.9 54.3 1.7 53 1.7 51.5ZM55.6 54.3H18V18C18 17.8 18 17.6 17.9 17.5H58.3V51.6C58.3 53 57.1 54.3 55.6 54.3Z" fill="white"/>
<path d="M50.1 22.1001H26.9C25.6 22.1001 24.6 23.1001 24.6 24.4001V30.6001C24.6 31.9001 25.6 32.9001 26.9 32.9001H50.1C51.4 32.9001 52.4 31.9001 52.4 30.6001V24.4001C52.4 23.2001 51.4 22.1001 50.1 22.1001ZM50.8 30.7001C50.8 31.1001 50.5 31.4001 50.1 31.4001H26.9C26.5 31.4001 26.2 31.1001 26.2 30.7001V24.5001C26.2 24.1001 26.5 23.8001 26.9 23.8001H50.1C50.5 23.8001 50.8 24.1001 50.8 24.5001V30.7001Z" fill="white"/>
<path d="M34.2 37.2998H26.3C25.3 37.2998 24.6 38.0998 24.6 38.9998V46.9998C24.6 47.9998 25.4 48.6998 26.3 48.6998H34.2C35.2 48.6998 35.9 47.8998 35.9 46.9998V39.0998C36 38.0998 35.2 37.2998 34.2 37.2998ZM34.3 46.9998L26.3 47.0998C26.3 47.0998 26.2 47.0998 26.2 46.9998V39.0998C26.2 39.0998 26.2 38.9998 26.3 38.9998H34.2C34.2 38.9998 34.3 38.9998 34.3 39.0998V46.9998Z" fill="white"/>
<path d="M40 41.2002H50.1C50.9 41.2002 51.6 40.5002 51.6 39.7002C51.6 38.9002 50.9 38.2002 50.1 38.2002H40C39.2 38.2002 38.5 38.9002 38.5 39.7002C38.5 40.5002 39.2 41.2002 40 41.2002Z" fill="white"/>
<path d="M40 47.3999H50.1C50.9 47.3999 51.6 46.6999 51.6 45.8999C51.6 45.0999 50.9 44.3999 50.1 44.3999H40C39.2 44.3999 38.5 45.0999 38.5 45.8999C38.5 46.7999 39.2 47.3999 40 47.3999Z" fill="white"/>
<path d="M7.3 13.4999C8.29411 13.4999 9.1 12.694 9.1 11.6999C9.1 10.7058 8.29411 9.8999 7.3 9.8999C6.30589 9.8999 5.5 10.7058 5.5 11.6999C5.5 12.694 6.30589 13.4999 7.3 13.4999Z" fill="white"/>
<path d="M12.5 13.4999C13.4941 13.4999 14.3 12.694 14.3 11.6999C14.3 10.7058 13.4941 9.8999 12.5 9.8999C11.5058 9.8999 10.7 10.7058 10.7 11.6999C10.7 12.694 11.5058 13.4999 12.5 13.4999Z" fill="white"/>
<path d="M17.7 13.4999C18.6941 13.4999 19.5 12.694 19.5 11.6999C19.5 10.7058 18.6941 9.8999 17.7 9.8999C16.7059 9.8999 15.9 10.7058 15.9 11.6999C15.9 12.694 16.7059 13.4999 17.7 13.4999Z" fill="white"/>
</g>
<defs>
<clipPath id="clip0">
<rect width="60" height="50.9" fill="white" transform="translate(0 5)"/>
</clipPath>
</defs>
</svg>
