<svg width="40" height="40" viewBox="0 0 40 40" fill="none" xmlns="http://www.w3.org/2000/svg">
<path d="M36.6 1H3.3C1.5 1 0 2.5 0 4.3V19.1C0 20.3 0.899998 21.2 2.1 21.2H2.4V37.1C2.4 38.3 3.4 39.2 4.5 39.2H15.5H24.6H35.1C36.3 39.2 37.2 38.2 37.2 37.1V21.2H37.8C39 21.2 39.9 20.3 39.9 19.1V4.3C40 2.5 38.5 1 36.6 1ZM17.4 37.4V28.6C17.4 27.4 18.3 26.5 19.5 26.5H20.7C21.9 26.5 22.8 27.4 22.8 28.6V37.4H17.4ZM35.4 37.1C35.4 37.2 35.3 37.3 35.2 37.3H24.7V28.5C24.7 26.3 22.9 24.5 20.7 24.5H19.5C17.3 24.5 15.5 26.3 15.5 28.5V37.3H4.5C4.4 37.3 4.3 37.2 4.3 37.1V21.2H12.9C13.6 21.2 14.3 20.8 14.7 20.2L19.9 12.6L25.1 20.2C25.5 20.8 26.2 21.2 26.9 21.2H35.4V37.1ZM38.1 19.1C38.1 19.2 38 19.3 37.9 19.3H26.9C26.8 19.3 26.8 19.3 26.7 19.2L19.9 9.3L13.1 19.3C13.1 19.4 13 19.4 12.9 19.4H2C1.9 19.4 1.8 19.3 1.8 19.2V4.3C1.8 3.5 2.4 2.9 3.2 2.9H36.5C37.3 2.9 37.9 3.5 37.9 4.3V19.1H38.1Z" fill="white"/>
<path d="M6.40002 32.9H13.7V24.6H6.40002V32.9ZM8.30002 26.5H11.7V31H8.30002V26.5Z" fill="white"/>
<path d="M26.3 32.9H33.6V24.6H26.3V32.9ZM28.2 26.5H31.6V31H28.2V26.5Z" fill="white"/>
</svg>
