<svg width="57" height="60" viewBox="0 0 57 60" fill="none" xmlns="http://www.w3.org/2000/svg">
<g clip-path="url(#clip0)">
<path d="M48.1 21.0001C47.8 21.0001 47.6 20.9001 47.4 20.6001L41.6 12.4001C39.9 10.0001 39.7 6.9001 41.1 4.3001C42.5 1.6001 45.1 0.100098 48.1 0.100098C51.1 0.100098 53.7 1.7001 55.1 4.3001C56.5 7.0001 56.3 10.0001 54.6 12.4001L48.8 20.6001C48.6 20.8001 48.3 21.0001 48.1 21.0001ZM48.1 1.7001C45.7 1.7001 43.7 2.9001 42.6 5.0001C41.5 7.1001 41.7 9.5001 43 11.4001L48.1 18.7001L53.2 11.4001C54.6 9.5001 54.7 7.1001 53.6 5.0001C52.5 2.9001 50.4 1.7001 48.1 1.7001Z" fill="white"/>
<path d="M13.7 60.0002C13.4 60.0002 13.2 59.9002 13 59.6002L2.5 44.6002C-0.5 40.3002 -0.8 35.1002 1.6 30.5002C4 25.9002 8.5 23.2002 13.7 23.2002C18.9 23.2002 23.4 25.9002 25.8 30.5002C28.2 35.1002 27.9 40.4002 24.9 44.6002L14.4 59.6002C14.2 59.9002 14 60.0002 13.7 60.0002ZM13.7 24.8002C9.1 24.8002 5.2 27.2002 3.1 31.3002C1 35.3002 1.3 40.0002 3.9 43.7002L13.7 57.7002L23.5 43.7002C26.1 40.0002 26.4 35.3002 24.3 31.3002C22.2 27.2002 18.2 24.8002 13.7 24.8002Z" fill="white"/>
<path d="M13.7 42.3003C10.4 42.3003 7.69995 39.6003 7.69995 36.3003C7.69995 33.0003 10.4 30.3003 13.7 30.3003C17 30.3003 19.7 33.0003 19.7 36.3003C19.7 39.6003 17 42.3003 13.7 42.3003ZM13.7 32.0003C11.3 32.0003 9.39995 33.9003 9.39995 36.3003C9.39995 38.7003 11.3 40.6003 13.7 40.6003C16.1 40.6003 18 38.7003 18 36.3003C18 33.9003 16.1 32.0003 13.7 32.0003Z" fill="white"/>
<path d="M43.6 27.1003C43.4 27.1003 43.2 27.0003 43.1 26.9003C42.7 26.6003 42.7 26.1003 43 25.7003L44.8 23.4003C45.1 23.0003 45.6 23.0003 46 23.3003C46.4 23.6003 46.4 24.1003 46.1 24.5003L44.3 26.8003C44.1 27.0003 43.8 27.1003 43.6 27.1003Z" fill="white"/>
<path d="M50.7999 52.7004C50.5999 52.7004 50.4 52.6004 50.2 52.4004L48.0999 50.2004C47.7999 49.9004 47.7999 49.3004 48.0999 49.0004C48.3999 48.7004 48.9999 48.7004 49.2999 49.0004L51.4 51.2004C51.7 51.5004 51.7 52.1004 51.4 52.4004C51.2 52.6004 50.9999 52.7004 50.7999 52.7004ZM46.5999 48.4004C46.3999 48.4004 46.2 48.3004 46 48.1004L44 46.0004C43.7 45.7004 43.7 45.1004 44 44.8004C44.3 44.5004 44.9 44.5004 45.2 44.8004L47.2999 47.0004C47.5999 47.3004 47.5999 47.9004 47.2999 48.2004C46.9999 48.3004 46.7999 48.4004 46.5999 48.4004ZM42.5 44.1004C42.3 44.1004 42.1 44.0004 41.9 43.8004L39.7999 41.6004C39.4999 41.3004 39.4999 40.7004 39.7999 40.4004C40.0999 40.1004 40.7 40.1004 41 40.4004L43.0999 42.6004C43.3999 42.9004 43.3999 43.5004 43.0999 43.8004C42.8999 44.0004 42.7 44.1004 42.5 44.1004ZM38.7 39.6004C38.4 39.6004 38.1 39.4004 37.9 39.1004C37.4 38.1004 37.2 37.0004 37.2 35.9004C37.2 35.4004 37.6 35.1004 38 35.1004C38.5 35.1004 38.7999 35.5004 38.7999 35.9004C38.7999 36.8004 39 37.7004 39.4 38.4004C39.6 38.8004 39.4 39.3004 39 39.5004C38.9 39.5004 38.8 39.6004 38.7 39.6004ZM38.7 33.8004C38.6 33.8004 38.5 33.8004 38.4 33.7004C38 33.5004 37.8 33.0004 38 32.6004C38.2 32.1004 38.6 31.5004 38.9 31.1004L39.7 30.0004C40 29.6004 40.5 29.6004 40.9 29.9004C41.3 30.2004 41.3 30.7004 41 31.1004L40.2 32.2004C39.9 32.6004 39.7 33.0004 39.5 33.4004C39.3 33.6004 39 33.8004 38.7 33.8004Z" fill="white"/>
<path d="M56.2 58.4002H53.2C52.7 58.4002 52.4 58.0002 52.4 57.6002C52.4 57.2002 52.8 56.8002 53.2 56.8002H54.2L53.5 56.0002C53.2 55.7002 53.2 55.1002 53.5 54.8002C53.8 54.5002 54.4 54.5002 54.7 54.8002L56.7 56.9002C56.9 57.1002 57 57.5002 56.9 57.8002C56.8 58.1002 56.5 58.4002 56.2 58.4002Z" fill="white"/>
<path d="M47.2 58.4003H43.8C43.3 58.4003 43 58.0003 43 57.6003C43 57.2003 43.4 56.8003 43.8 56.8003H47.2C47.7 56.8003 48 57.2003 48 57.6003C48 58.0003 47.7 58.4003 47.2 58.4003ZM40.5 58.4003H37.1C36.6 58.4003 36.3 58.0003 36.3 57.6003C36.3 57.2003 36.7 56.8003 37.1 56.8003H40.5C41 56.8003 41.3 57.2003 41.3 57.6003C41.3 58.0003 40.9 58.4003 40.5 58.4003ZM33.7 58.4003H30.3C29.8 58.4003 29.5 58.0003 29.5 57.6003C29.5 57.2003 29.9 56.8003 30.3 56.8003H33.7C34.2 56.8003 34.5 57.2003 34.5 57.6003C34.5 58.0003 34.2 58.4003 33.7 58.4003ZM27 58.4003H26.3C25.8 58.4003 25.5 58.0003 25.5 57.6003C25.5 57.2003 25.9 56.8003 26.3 56.8003H27C27.5 56.8003 27.8 57.2003 27.8 57.6003C27.8 58.0003 27.4 58.4003 27 58.4003Z" fill="white"/>
<path d="M23.3 58.4003H20.3C19.8 58.4003 19.5 58.0003 19.5 57.6003C19.5 57.2003 19.9 56.8003 20.3 56.8003H23.3C23.8 56.8003 24.1 57.2003 24.1 57.6003C24.1 58.0003 23.7 58.4003 23.3 58.4003Z" fill="white"/>
</g>
<defs>
<clipPath id="clip0">
<rect width="57" height="60" fill="white"/>
</clipPath>
</defs>
</svg>
