<svg width="50" height="50" viewBox="0 0 50 50" fill="none" xmlns="http://www.w3.org/2000/svg">
<rect width="50" height="50" fill="white"/>
<path d="M50 11.8C50 11.7 50 11.6 49.9 11.5V11.4C49.8 11.3 49.8 11.2 49.7 11.1L40.2 1.4C39.9 1.1 39.6 1 39.3 1H25H10.7C10.4 1 10.1 1.1 9.8 1.4L0.4 11C0.3 11.1 0.2 11.2 0.2 11.3V11.4C0 11.6 0 11.7 0 11.8C0 11.8 0 11.8 0 11.9V48.2C0 48.9 0.5 49.4 1.2 49.4H48.8C49.5 49.4 50 48.9 50 48.2V11.8C50 11.9 50 11.8 50 11.8ZM45.9 10.7H26.2V3.4H38.8L45.9 10.7ZM11.2 3.4H23.8V10.7H4.1L11.2 3.4ZM47.6 47H2.4V13.1H25H47.6V47Z" fill="#404041"/>
</svg>
