<svg width="60" height="47" viewBox="0 0 60 47" fill="none" xmlns="http://www.w3.org/2000/svg">
<g clip-path="url(#clip0)">
<path d="M59.7 17.1L54.6 8.5C54.6 8.5 54.6 8.4 54.5 8.4C54.5 8.4 54.5 8.3 54.4 8.3L54.3 8.2C54.3 8.2 54.3 8.2 54.2 8.2C54.1 8.2 54.1 8.1 54 8.1L31.3 0.0999999C31.2 0.0999999 31.2 0.0999999 31.1 0.0999999C31 0.0999999 31 0.0999999 30.9 0.0999999C30.9 0.0999999 30.9 0.0999999 30.8 0.0999999H30.7H30.6L7.50002 8.2C7.30002 8.3 7.10002 8.5 7.00002 8.7L0.300016 19.7C-0.0999844 20.4 -0.0999844 21.2 0.500016 21.8C0.900016 22.2 1.40002 22.5 1.90002 22.5C2.10002 22.5 2.30002 22.5 2.50002 22.4L7.20002 20.7V37.5C7.20002 37.9 7.50002 38.3 7.90002 38.4L30.7 46.5C30.8 46.5 30.9 46.6 31 46.6C31.1 46.6 31.2 46.6 31.3 46.5L54.1 38.4C54.5 38.3 54.8 37.9 54.8 37.5V21.2L58.8 19.8C59.3 19.6 59.7 19.2 59.9 18.7C60.1 18.2 60 17.6 59.7 17.1ZM7.20002 18.6L2.10002 20.4L7.20002 12V18.6ZM30 44.1L9.20002 36.8V10.5L30 17.8V44.1ZM31 16.1V2L47.5 7.8L50.8 9L31 16.1ZM52.7 36.8L32 44.1V20.7L35.5 26.5C35.8 27.1 36.5 27.4 37.1 27.4C37.3 27.4 37.5 27.4 37.7 27.3L52.7 22V36.8ZM37.1 25.4L32.5 17.7L53.3 10.3L58 18L37.1 25.4Z" fill="#404041"/>
</g>
<defs>
<clipPath id="clip0">
<rect width="60" height="46.5" fill="white"/>
</clipPath>
</defs>
</svg>
