<svg width="40" height="40" viewBox="0 0 40 40" fill="none" xmlns="http://www.w3.org/2000/svg">
<path d="M20 0C9 0 0 9 0 20C0 31 9 40 20 40C31 40 40 31 40 20C40 9 31 0 20 0ZM20 38C10.1 38 2 29.9 2 20C2 10.1 10.1 2 20 2C29.9 2 38 10.1 38 20C38 29.9 29.9 38 20 38Z" fill="#404041"/>
<path d="M30.2 19H23.5C23.2 17.8 22.2 16.8 21 16.5V6.5C21 5.9 20.6 5.5 20 5.5C19.4 5.5 19 5.9 19 6.5V16.5C17.5 16.9 16.4 18.3 16.4 20C16.4 22 18 23.6 20 23.6C21.6 23.6 23 22.5 23.5 21H30.2C30.8 21 31.2 20.6 31.2 20C31.2 19.4 30.7 19 30.2 19ZM20 21.6C19.1 21.6 18.4 20.9 18.4 20C18.4 19.1 19.1 18.4 20 18.4C20.9 18.4 21.6 19.1 21.6 20C21.6 20.9 20.9 21.6 20 21.6Z" fill="#404041"/>
</svg>
