<svg width="60" height="60" viewBox="0 0 60 60" fill="none" xmlns="http://www.w3.org/2000/svg">
<path d="M30 60C13.5 60 0 46.5 0 30C0 13.5 13.5 0 30 0C46.5 0 60 13.5 60 30C60 46.5 46.5 60 30 60ZM30 1.9C14.5 1.9 1.9 14.5 1.9 30C1.9 45.5 14.5 58.1 30 58.1C45.5 58.1 58.1 45.5 58.1 30C58.1 14.5 45.5 1.9 30 1.9Z" fill="black"/>
<path d="M26.2 40.3C26 40.3 25.7 40.2 25.5 40L16 30.6C15.6 30.2 15.6 29.6 16 29.2C16.4 28.8 17 28.8 17.4 29.2L26.2 38L42.9 21.3C43.3 20.9 43.9 20.9 44.3 21.3C44.7 21.7 44.7 22.3 44.3 22.7L26.8 40C26.6 40.2 26.4 40.3 26.2 40.3Z" fill="black"/>
</svg>
