<svg width="40" height="34" viewBox="0 0 40 34" fill="none" xmlns="http://www.w3.org/2000/svg">
<path d="M36.8 0H3.2C1.4 0 0 1.4 0 3.1V30.8C0 32.5 1.4 34 3.2 34H36.9C38.6 34 40.1 32.6 40.1 30.8V3.1C40 1.4 38.6 0 36.8 0ZM3.2 1.9H36.9C37.6 1.9 38.1 2.4 38.1 3.1V7H2V3.1C2 2.5 2.5 1.9 3.2 1.9ZM2 30.8V9H10.7V32.1H3.2C2.5 32 2 31.5 2 30.8ZM36.8 32H12.6V9H38V30.8C38 31.5 37.5 32 36.8 32Z" fill="#404041"/>
<path d="M22.7 21H17.7C16.8 21 16.1 21.7 16.1 22.6V27.6C16.1 28.5 16.8 29.2 17.7 29.2H22.7C23.6 29.2 24.3 28.5 24.3 27.6V22.6C24.3 21.8 23.6 21 22.7 21ZM22.4 27.4H18V23H22.4V27.4Z" fill="#404041"/>
<path d="M33.2 11.2H17.9C16.9 11.2 16.1 12 16.1 13V17.2C16.1 18.2 16.9 19 17.9 19H33.2C34.2 19 35 18.2 35 17.2V13C35 12 34.2 11.2 33.2 11.2ZM33.1 17.1H18V13.1H33.1V17.1Z" fill="#404041"/>
<path d="M34 22H26.2C25.7 22 25.2 22.4 25.2 23C25.2 23.5 25.6 24 26.2 24H34C34.5 24 35 23.6 35 23C35 22.5 34.6 22 34 22Z" fill="#404041"/>
<path d="M34 26.1H26.2C25.7 26.1 25.2 26.5 25.2 27.1C25.2 27.6 25.6 28.1 26.2 28.1H34C34.5 28.1 35 27.7 35 27.1C35 26.5 34.6 26.1 34 26.1Z" fill="#404041"/>
<path d="M5.2 5.99998C5.9 5.99998 6.4 5.49998 6.4 4.79998C6.4 4.09998 5.9 3.59998 5.2 3.59998C4.5 3.59998 4 4.09998 4 4.79998C4 5.49998 4.5 5.99998 5.2 5.99998Z" fill="#404041"/>
<path d="M8.60002 5.99998C9.30002 5.99998 9.80002 5.49998 9.80002 4.79998C9.80002 4.09998 9.20002 3.59998 8.60002 3.59998C7.90002 3.59998 7.40002 4.09998 7.40002 4.79998C7.40002 5.49998 7.90002 5.99998 8.60002 5.99998Z" fill="#404041"/>
<path d="M12 5.99998C12.7 5.99998 13.2 5.49998 13.2 4.79998C13.2 4.09998 12.6 3.59998 12 3.59998C11.4 3.59998 10.8 4.09998 10.8 4.79998C10.8 5.49998 11.3 5.99998 12 5.99998Z" fill="#404041"/>
</svg>
