<svg width="96" height="39" viewBox="0 0 96 39" fill="none" xmlns="http://www.w3.org/2000/svg">
<g style="mix-blend-mode:luminosity" clip-path="url(#clip0)">
<path d="M13.3525 9.59408C11.27 9.59408 9.57855 7.91535 9.57855 5.83804C9.57855 3.76542 11.27 2.082 13.3525 2.082C15.435 2.082 17.1264 3.76542 17.1264 5.83804C17.1264 7.91535 15.435 9.59408 13.3525 9.59408ZM25.5695 4.70795H19.11C18.5823 2.02573 16.203 0 13.3525 0C10.502 0 8.1274 2.02573 7.59499 4.70795H1.13548C0.508846 4.70795 0 5.21438 0 5.84273C0 6.46639 0.508846 6.97283 1.13548 6.97283H7.57615C8.32528 11.5542 13.3525 14.7194 13.3525 14.7194C13.3525 14.7194 18.3797 11.5542 19.1288 6.97283H25.5695C26.1961 6.97283 26.7097 6.46639 26.7097 5.84273C26.705 5.21438 26.1961 4.70795 25.5695 4.70795Z" fill="#FA4E41"/>
<path d="M15.2042 37.1571C15.2042 38.1747 14.375 39 13.3526 39C12.3302 39 11.501 38.1747 11.501 37.1571V25.7061C11.501 24.6886 12.3302 23.8633 13.3526 23.8633C14.375 23.8633 15.2042 24.6886 15.2042 25.7061V37.1571Z" fill="#FA4E41"/>
<path d="M19.4917 9.44385C17.8144 13.153 14.1206 15.5163 13.9321 15.6336L13.3526 15.9993L12.7731 15.6336C12.5846 15.5163 8.89075 13.1483 7.21344 9.44385C3.63739 9.67362 3.86825 13.1718 3.86825 17.8703C3.86825 26.8173 8.76825 30.4467 10.3136 31.3658V25.706C10.3136 24.0366 11.6753 22.6814 13.3526 22.6814C15.0299 22.6814 16.3915 24.0366 16.3915 25.706V31.3705C17.9369 30.4467 22.8369 26.822 22.8369 17.875C22.8369 13.1718 23.0678 9.67362 19.4917 9.44385Z" fill="#404041"/>
<path d="M42.6676 20.384L42.6111 20.3558C41.1317 19.6712 40.227 19.207 40.227 18.3864C40.227 17.5048 41.0092 17.0218 42.4273 17.0218H46.0882L47.1341 14.2505H42.4933C39.1952 14.2505 37.2305 15.7745 37.2305 18.3254C37.2305 20.5293 38.889 21.6125 40.5851 22.5363C40.9291 22.7239 41.2777 22.8927 41.6122 23.0568C42.8325 23.6476 43.8879 24.1587 43.8879 25.1013C43.8879 26.2032 43.1859 26.6112 41.3013 26.6112H37.4095L36.3918 29.3825H41.2777C43.6947 29.3825 46.908 28.9323 46.908 25.045C46.908 22.3487 44.6559 21.303 42.6676 20.384Z" fill="#404041"/>
<path d="M52.6608 22.2454C52.0436 22.4798 51.4923 22.855 51.2473 23.3239C51.2332 23.2864 51.2238 23.2489 51.2096 23.2113C51.073 22.7565 51.0023 22.2876 51.0023 21.814C51.0023 19.1693 53.1602 17.0216 55.8175 17.0216C57.5466 17.0216 59.1486 17.9641 59.9966 19.4459L52.6608 22.2454ZM63.3371 20.7683C63.2382 20.0602 63.045 19.385 62.7623 18.7519C61.542 16.0134 58.814 14.2456 55.8128 14.2456C51.6195 14.2456 48.2084 17.6406 48.2084 21.814C48.2084 25.9873 51.6195 29.3823 55.8128 29.3823C57.6409 29.3823 59.4124 28.7211 60.7976 27.5207L61.0567 27.2956L59.2946 25.1386L59.0166 25.3871C58.1309 26.1749 56.9954 26.611 55.8128 26.611C54.536 26.611 53.3298 26.114 52.4299 25.2324L63.3748 21.0543L63.3371 20.7683Z" fill="#404041"/>
<path d="M71.799 14.2456C68.1429 14.2456 65.1699 17.2045 65.1699 20.8433V29.3776H68.0392V20.8433C68.0392 18.7754 69.726 17.0966 71.8038 17.0966C73.8768 17.0966 75.5683 18.7754 75.5683 20.8433V29.3776H78.4376V20.8433C78.4329 17.2092 75.4552 14.2456 71.799 14.2456Z" fill="#404041"/>
<path d="M34.1633 14.2456H31.2939V29.3823H34.1633V14.2456Z" fill="#404041"/>
<path d="M86.2729 21.8142C86.2729 22.9115 87.1729 23.8071 88.2754 23.8071C89.3779 23.8071 90.2778 22.9162 90.2778 21.8142C90.2778 20.7169 89.3826 19.8213 88.2754 19.8213C87.1729 19.826 86.2729 20.7169 86.2729 21.8142Z" fill="#FA4E41"/>
<path d="M32.7309 12.9658C33.8334 12.9658 34.7333 12.0748 34.7333 10.9729C34.7333 9.87562 33.8381 8.97998 32.7309 8.97998C31.6284 8.97998 30.7285 9.87093 30.7285 10.9729C30.7285 12.0702 31.6284 12.9658 32.7309 12.9658Z" fill="#404041"/>
<path d="M88.2753 26.6254C85.6039 26.6254 83.4413 24.4731 83.4413 21.8143C83.4413 19.1555 85.6039 17.0032 88.2753 17.0032C90.9467 17.0032 93.1093 19.1555 93.1093 21.8143C93.1046 24.4731 90.942 26.6254 88.2753 26.6254ZM93.0104 8.97998V15.9012C91.71 14.8696 90.0657 14.2459 88.2753 14.2459C84.0773 14.2459 80.6709 17.6315 80.6709 21.8143C80.6709 25.9924 84.0726 29.3827 88.2753 29.3827C90.0657 29.3827 91.71 28.7637 93.0104 27.7274C93.0104 27.7274 93.6936 29.3827 95.4934 29.3827C95.5876 29.3827 95.875 29.3827 95.875 29.3827V8.98467H93.0104V8.97998Z" fill="#404041"/>
</g>
<defs>
<clipPath id="clip0">
<rect width="95.875" height="39" fill="white"/>
</clipPath>
</defs>
</svg>
